<svg viewBox="0 0 32 32" fill="none" xmlns="http://www.w3.org/2000/svg">
  <rect x="5" y="3" width="17" height="22" rx="3" fill="#18181c" stroke="url(#fg)" stroke-width="1.8"/>
  <path d="M15 3v5a2.5 2.5 0 0 0 2.5 2.5H22" stroke="url(#fg)" stroke-width="1.8" stroke-linecap="round"/>
  <line x1="9" y1="14" x2="17" y2="14" stroke="#7c3aed" stroke-width="1.5" stroke-linecap="round" opacity=".6"/>
  <line x1="9" y1="18" x2="14" y2="18" stroke="#7c3aed" stroke-width="1.5" stroke-linecap="round" opacity=".35"/>
  <path d="M25 8l-1.2 2.4-2.4 1.2 2.4 1.2L25 15.2l1.2-2.4 2.4-1.2-2.4-1.2z" fill="#c4b5fd"/>
  <path d="M23 20l-.7 1.4-1.4.7 1.4.7.7 1.4.7-1.4 1.4-.7-1.4-.7z" fill="#a78bfa" opacity=".55"/>
  <defs>
    <linearGradient id="fg" x1="5" y1="3" x2="25" y2="25">
      <stop stop-color="#c4b5fd"/>
      <stop offset="1" stop-color="#7c3aed"/>
    </linearGradient>
  </defs>
</svg>
